<?xml version="1.0" standalone="no"?>
<!DOCTYPE svg PUBLIC "-//W3C//DTD SVG 20010904//EN"
 "http://www.w3.org/TR/2001/REC-SVG-20010904/DTD/svg10.dtd">
<svg version="1.0" xmlns="http://www.w3.org/2000/svg"
 width="900.000000pt" height="980.000000pt" viewBox="0 0 900.000000 980.000000"
 preserveAspectRatio="xMidYMid meet">

<g transform="translate(0.000000,980.000000) scale(0.100000,-0.100000)"
fill="#000000" stroke="none">
<path d="M3950 9790 c-804 -77 -1485 -469 -1902 -1095 -170 -255 -279 -531
-333 -838 -15 -88 -15 -89 -70 -138 -62 -57 -109 -143 -125 -228 -13 -72 -13
-1001 0 -1072 24 -126 110 -236 227 -292 l68 -32 237 -3 238 -3 6 -27 c129
-575 335 -983 664 -1313 385 -386 827 -559 1356 -528 614 35 1040 291 1359
818 57 94 158 292 152 298 -2 1 -48 -27 -103 -64 -249 -167 -612 -294 -910
-320 -72 -6 -81 -9 -118 -43 -80 -73 -89 -75 -306 -75 -182 0 -198 1 -236 22
-80 43 -144 147 -144 233 0 61 31 132 79 180 68 68 111 80 296 80 177 0 230
-12 293 -66 42 -36 44 -36 105 -30 515 58 946 316 1215 729 28 42 52 81 54 87
2 5 96 11 228 13 254 5 291 12 380 74 65 46 122 118 153 193 22 54 22 63 25
568 2 328 -1 533 -7 570 -16 87 -63 173 -126 231 -55 49 -55 50 -70 138 -48
276 -148 543 -290 773 -383 617 -1026 1027 -1785 1140 -156 23 -467 33 -610
20z m540 -475 c827 -117 1491 -685 1670 -1430 11 -44 16 -81 11 -83 -5 -2 -34
-18 -66 -37 -32 -19 -59 -35 -60 -35 -2 0 -13 30 -25 66 -33 98 -138 301 -206
395 -133 186 -347 377 -550 489 -198 110 -449 192 -708 232 -190 29 -550 31
-736 4 -339 -49 -621 -154 -883 -329 -126 -84 -333 -291 -416 -417 -70 -105
-144 -247 -186 -360 -16 -41 -30 -77 -31 -78 -2 -2 -22 9 -46 26 -24 16 -53
32 -65 36 -26 8 -25 19 14 156 106 375 321 689 648 945 230 180 555 330 855
393 83 18 184 32 325 46 74 7 349 -4 455 -19z"/>
<path d="M3230 4121 c-57 -18 -98 -49 -329 -244 l-242 -204 -1007 -402 c-743
-296 -1019 -411 -1054 -437 -137 -102 -269 -369 -357 -720 -91 -363 -151 -811
-201 -1504 -12 -157 -24 -315 -29 -353 -4 -37 -5 -69 -3 -72 3 -3 1364 -5
3025 -5 l3020 0 -19 22 c-10 13 -24 27 -30 33 -39 37 -142 165 -197 245 -165
241 -269 507 -312 801 -19 137 -19 386 1 530 84 606 467 1141 1020 1424 60 31
110 57 111 59 2 2 -207 88 -465 191 l-469 188 -184 155 c-284 239 -323 268
-380 287 -68 23 -167 16 -229 -15 -30 -15 -154 -131 -382 -358 l-338 -337 -92
91 c-51 49 -205 200 -341 334 -162 160 -264 253 -295 269 -50 26 -173 38 -222
22z"/>
<path d="M7300 3084 c-549 -68 -990 -374 -1230 -853 -53 -107 -114 -289 -136
-411 -27 -145 -25 -421 4 -565 128 -639 612 -1113 1257 -1232 140 -26 399 -23
543 6 490 96 885 397 1102 839 241 489 204 1071 -98 1527 -229 348 -582 585
-989 666 -105 20 -366 34 -453 23z m690 -554 c10 -18 3 -29 -49 -84 -34 -34
-61 -66 -61 -71 0 -5 14 -61 31 -125 l31 -116 124 -34 125 -33 65 64 c54 53
67 62 82 53 9 -6 18 -26 20 -43 5 -46 -31 -158 -69 -215 -85 -127 -265 -201
-409 -166 l-52 13 -119 -119 -119 -119 50 -49 49 -50 70 67 c38 37 77 67 86
67 17 0 149 -121 166 -153 7 -12 5 -26 -8 -47 l-18 -30 243 -243 c189 -189
242 -248 242 -268 0 -35 -255 -289 -290 -289 -18 0 -87 63 -270 246 -214 213
-248 243 -260 230 -27 -34 -61 -19 -132 56 -38 41 -68 82 -68 93 0 12 27 48
65 85 l65 64 -52 53 -53 53 -131 -131 c-128 -128 -132 -132 -123 -163 14 -50
10 -168 -8 -222 -51 -155 -194 -267 -343 -268 -88 -1 -91 16 -12 98 l60 62
-33 123 c-18 68 -35 124 -37 125 -2 1 -57 17 -122 35 l-120 32 -61 -61 c-88
-87 -120 -77 -105 32 31 220 242 375 463 338 l69 -12 129 128 129 129 -172
174 c-146 147 -192 186 -299 256 l-125 83 -52 91 c-29 50 -52 97 -52 104 0 7
24 37 54 66 l54 53 99 -56 99 -56 78 -122 c67 -104 104 -149 250 -295 94 -95
175 -173 181 -173 6 0 61 51 123 113 l113 113 -12 48 c-17 69 -6 184 25 251
27 60 100 143 153 176 48 30 140 58 190 58 33 1 45 -4 53 -19z"/>
</g>
</svg>
